<svg xmlns="http://www.w3.org/2000/svg" viewBox="0 0 437.1 460.6"><defs><style>.cls-1{fill:#1e3a8a;}</style></defs><g id="Calque_2" data-name="Calque 2"><path class="cls-1" d="M385.7,58.8l-.2,1.1-.5.5h-.2l-.7.2-.3.1v.1l-.6.8-.3.6-.7.2-1.3,1.5-.6-.4-.4.2h-1.2l-.3-.1-.3-.3v-.4l.6-1.2.2-.4-.2-.6-.3-.4h-.3l-1.7.9L376,61l-.5-.4-.7-.5-2.1-.8h-.6l-1.2.2-.8-.1-2.1-.7-.6-.1-.7.1h-.9l-.8-.1-1.5.1-3.2-.1-.8.2-.9.2h-.4l-.8-.6-.7-1-1.6-1.2-.6.2-.3.3-1.4.8h-.6l-.7-.1h-1.2l-.3.1-.5.2-.5-.2-3.3,1.2-.3.4-.9.4-1.4,1.8h-.3l-4.4-.7-.5-.2h-1.3l-.3.4-1,1.1h-.8l-.5.5h-.6l-.6.2h-.4l-.2-.3h-.3l-.3.3h-.3l-.1.2v.1l.1.1-.4.9.1.3.3.3-.1.1v.2l-.4.4-.5.3h-.4l-.4-.2-.8-.4-.5.3h-.9l-.5.1-.5.9v1.3h-.8l-.7.2-.1-.2-.9-.3-2.2-1.1-1-.8h-.5l-.4.2-.4.4-.3.9-1.6,1-.4,1-.5.6-2.1,1-.7-.1-.6.1-.3.2-.3.3-.7.1h-.4l-.5-.1h-.4l-.3-.3-.1.1-.6,1.3.1.2h.7v.2l-.2.6v.9l-.3.3v.6l-.3.1-.5.6.3.4-.6,1.2.2.4-.2.6v.3l-.1.9-2,2.7-2.2-1.7-.2-.2h-.7l-.4.3-.3.3-.1.4.1.6v.2l-.3.4-.3.2h-.7l-.3-.2-.7-.7-.5-1-.4-1.9-.3-.5L299,78l-.3-.2-.4-.3H298l-.9.5-1.1.2h-.6l-1.3.2-1,.3-.3-.2-.2-.5-.4-.2v-.7l-.1-.4v-.5l-.2-.6.2-1.1.8-.7.2-.3.1-1.1-.1-.4-.2-.3-.7-.1h-2.3l-.6.3v.3l.4.8.5.2.1.3-.1.4L289,75.5l-.6.3h-.5l-.3-.3-.5-.3-.1-.6-.1-.1-.5-.3-.1-.4-.6-.2-.2-.1-.1-.3h-.3l-.1.3.1.4-.3.1-.3.6-.1.2-.2-.2-.4-.3h-.6l-.3-.5h-.3l-.2.2-.2.3v.8l-.4.5h-.3l-.4-.1-.2.6-.3.3-.3.1h-.6l-.1-.1v-.6h-.4l-.5-.2-.3-.4-.5-1.4-.5-.6-.1-.5-.7-.4c.1-.8-.1-1.2-.6-1.3a5.91,5.91,0,0,1-1.9,0v.3l.1.9h-.4l-.3-.2-.3-.3-.1-.8-.3-.2-.7.2v-.2l.1-.6-.1-.3h-.3l-.2.2h-.3l-.5-1.3.1-.2.6.2.9.1h.4l.1-.1v-.2l-.3-.4-.2-.6.2-.7-.1-.4.1-.5.5-.4-.2-.3h-.1l-.4-.1-.6-.7h-.3l-.3.2h-.6l-.6-.7v-.7l-.1-.2-1-.2-.5.1H268l-.6-.5h-1l-.3-.2-.1-.3-.6.1-1-.7-.5-.5-.4.2-.6.5-.1.1-.1.6-.2.1h-.2l-.2-.1v-.3l-1.2-.3L260,61l-.1-.9-.1-.2v-.2l.5-.3.3-.6v-.5l-.3-.6.3-.5.1-.1.7-.1.2-.3-.1-.3-.8-.3-.2-.2v-.5l-.3-.3-1.2-.5-.3-.3-.1-1.1v-.7l.1-.2,1.6.6v-.3l-.3-.4.5-.5.1-.3-.7-.4v-.7l-.1-.2L259,50l-.5-.6-.2-.6-.9-.4-.4.1h-.4l-.3-.4v-.3l.1-.3.3-.3.4-1,.5-.6H257l-.4.3h-.5l-.3.2-.4.3-.3.1-.3.3-.3.6-.2-.2-.2-.1-.9.3-.1-.3.1-.4,1.2-1.1v-.1h-.3l-.6.1-.4-.2h-.3l-.4.1-.3-.1-.2-.6.3-.6.3.3.6-.3.6.6.3-.2h.4l.3-.4-.4-.6-1.4-.1-.8-.6-.2-.4.2-.3-.2-.3.2-.2.1-.4.3-1.3-1.6.1-.6.5-.4-.2-.3-.1v-.2l.2-.3,1-.2.4-.9.3-.7-.2-.6-.2-.6-.6.7-1.9.8h-.2l-.1-.2.4-1.3-.8.7-.9.2-.6-.5-.3-.7-.1-1v-.4l1.3-2.5.1-.4V30.6l-.5-.8-.3-.1h-.3l-.9.4-.7.9-.7.4-.2-.3-.7-.2-.2-.2.2-.3-.2-.6-1,1.1-.7-.5h-1.3l-.7.2-.5.3-.3-.5h-.5l-.2.2-.1.3h-.3l-.7-.8H236l-.3.3.4.3.2.2-.3.2h-.2l-.1-.1-.4.4h-.5l-.6.6h-.4l-1.2-.6-.1-.1.1-.2-.2-.1-.3.3-.5,1.2-.1.1H231l-.5-.7-.8.1-.4-.1h-.7l-.7-.8-.5-.2v-.6l-.3-.5h-.3l-.4.3h-.1l-.3-.4v-.6l-.2-.3-.4-.3h-.7l-.5-.3-.3-.4.5-.3-.2-.1.3-.3-.4-.6.1-.3-.3-.3h-.4l-.3.3-.4-.3v-.1l.1-.5-.8-1.5-.3-.2-.5-.6v-.6l-.3.2h-.2l.1-.3-.3-.4h-.5l-.4-.3h-.1l-.7-.7-.8-.5-.7-.7-.4-.2-.7.3-.8.6-.5.2-1.1-.2h-1l-1-.3-.9.2-1.4-.5-.3-.1-.2.1-1.5,1.3-.5.2-2,.3-.7.4h-.9l-1-.6H202l-1.9,1-.3.2h-.3l-.5.3-.3.4-.3.6v.6l-1.4,1-.7.3h-.5l-.4-.2-.4.3-.6.3-.3.5v.7l-.6,1.4V29l.1.6-.7.5-.3.6-.1.7.4,1.2-.3.4-.1.2-.9.1-1.1-.6-1.4.3-.4.2-.3-.2h-.1l-.4.2.1,1-.1.7-.6,1-.2.9-.3.4-1.4,1.3-.9.3-1.3-.1h-.3l-.4-.2h-.7l-1.3.3h-1.6l-1.5-.4c-1.4-1-2.4-1.4-3-1.3s-1.3-.3-2.2-1.2l.1-.8-.2-.2-.2-.3h-1.3l-.4-.1v-.3l-.2-1.3-.4-.7-.6-.5a3.09,3.09,0,0,1,1.5-1.2c.8-.2,1.3,0,1.4.8h.3l.1-.7.6-.5-.1-.3-.5-.1-.4-.9.3-.6.3-.2h.3l.8-.9h.6v-.3l-.6-.1-.7-.3-.1-.8-.3-.1-.2-.3.3-.3.3-1.3.6-.3.4.5.2-.2.3-.1.1-.6-.1-.3-.3-.3-1.2-.7-.1-.5-.3-.1V20l.1-.5.5-.4V19l1-.6.3-.3c-.2-.7-1.2-.9-2.9-.7l-.3-.5.3-.4-.3-.4-.4-.5-.5-.3H170l-.4.8h-.4l-.3-.2h-.3l-.3-.4-.2-.4.5-1.2.4-.4,1-.3V13l.9-1,.1-.4V11l-.2.1v-.4l.4-.6-.2-.3h-.1l-.4.2h-.2l-.3-.9.2-.3.3-.4.3-.2.8.2.3-.2.6-.5.1-.3-.1-.3-.2-.1-.5.1-.3-.3-.6-.3-.3-.5-.3-.3-.7.1-.3-.6V4.8l.7-1.1-.6-1.1.5-.3.6-.6.3-.7-.2-.3L168.9.3h-.3l-.2-.3h-.5l-1.5.5-.6.4-1.9.7-.5.5h-.5L161,3l-.3-.9-.4-.1-1.1-.1-.5-.2-.6.2h-.4l-1.4.7-.2.4L156,4.3l.1,3.6.9.2.4.3.3.4v.6l-.3.6-1,.6-1.2,1.3-.8.4-1.3.1-2-1h-.8v.2l-.3.1-.5-.1-2.1-.8-.5-.5-.3-.6-1.5-1.1-1.6-.4L142.4,7l-.3-1.5-.6-.5-1.3-.4L140,5l-.5.7-.5.9.2.4.4-.2.3.3-.3.3-.3.1-1,.2-.3.2v.9l-.3.9V10l.2.1h.4l.1.3-.1.4-.1,1.1.1,1.3-.1.3.4,1-.2.1-.5.2-.3-.2-.2,1,.2.9-.5,1.3.2.3h.4v.3l-.3.9.2.2.3-.1.5.7.6.3.3-.3.4.2.3.1v.3l-.1.4.1.2h.9l.2.1a4.58,4.58,0,0,1-1.9,3.2l.1.2-.7.8-.6,1.2-.4.3-.9.3h-.6l-.4-.2h-.3l-1-1.1-2.9-1.2-.2.2h-.5l-1.8.5-2.9.5-1.1.8-.8.2-2.4-.6h-.9l-1.6.3-.6-.1-.4-.2-.3.2L117,28l-.2.1-.7.6-1.3,2v.6l.2,1.2.2.4.2.6.7.7.5.9.2.8.2.2V38l-.3.7-.3.1-.1.3-4,2.5-.7.1-.3-.1L110,40.1l-.4-.7-.6-1.3-.4-.7-.5-.5-2.1-.4-1.1-.7h-1.4l-.6-.2-.4-.7-.7-.3-1.6.2-1.9-.3-.5-.5-.8-.2H96l-1.6.2-.3-.1-.6-1.4-.2-.2-1.5.6-1,.9-.9-.2-.9-.4h-.7l-.7.3-.2-.2-.4-.6L88,31l.6-2.2-.2-1.9L87,26.4l-.6-.3-.7-.2-1.2-.7-.4-.1-.4-.6-.5-.9-.8-3.9-.3-.2-.3-.2-.6-.3-1-.2-.5-.1-1.6-.2-.2.2-1.1.4-.5.4-1.2,1.6-.6.2h-.4l-1.5-.9h-.4l-1.2.3h-.5l-.3-.1v-.2L70,19l-.7-.8-.8-.2-.2.1-.4.4-.4.9c-.6,1.3-1.3,2.1-2.2,2.3a22.14,22.14,0,0,0-3,.7v.3l-.1.2-.4.1-.5,1.3v.3l.2.2H62l.3.3v.4l-.1.3-.6.3v.3l.4.1.3.2.2.8-.2.3-.3.3-.2.1H60.7l-.4.3-.1.3.1.8-.1.2L60,30h-.7l-.3.1v.5l.2.3,1,.1.1.3-.4.3-.2.4-1.6,1-.3.2-.4.6-.3.1-.6,1.7-.4.5-.7.3-1,.7-.5.6-.7.7-.6.1-1.6.2-.5.3-1.2,1.1-1.2.8-.7.1h-.9l-1.1-.4h-1l-.5.7-.1.6L42,45.4l-.2.8L39.7,48l-2.4,1-1.5.4-.5.5-1.8,2.3v.3l-.3.1v.6l-.1.6-.7.4-.3.1v.3l.1.5.4.3.3.1.9-.6h.4l.3.3v1l-.3.3h-.1l-.4-.1-1.3.6-1.2-.3-.3.3.1.2.9.3.2.2-.3.2-.6.2-.2.3.3,1.1.5.2h.1l.6-.3.3-.3h.6l.1.3-.3.3.6.3.1.3v.3l-.2,1.1h-.3l-.5-.4-.1.2-.2.8v.3l.5.3h.6l.4-.3h.4l.3.2.3.2v.2l.2.4-.2.4v.4l-.3.4.2.3.3.1h.4l-.2.1-.1.8v.5l-.1.5-.7-.3-.2.3.1.3.6.4V68l-.9.2v.9l.6,1-.2.2-.8.1-.1.2.4.4-.4.9.4.4-.3.4.3,1.5v.3l-.2.1h-.4l-.3.9.2.3v.6l.3.5-.2.2h-.3l-.1.1.6.3.1.3v.3l-.4.6v.7l-.6.4-.3.5h-.4v.1l.5.6v.1l-.2.3-.5,1.5.6.4.1.6-.1.3-.3.1-.1.2v.7l.3,1-.2.5v.2l.4.2.8.4-.2.2-.1.6.3.5V89l.3.6.4.2v.5l.5.6v.4l.4.4.1.2.2.4.4.2.1.5L37,94.3l.1.5.6.3.9,1.3,1,.1,2.4-.1.9.3h.9l.3.3,1.1-.2,2.2-.9,1.6-.8,1.5.3h0l.5-.6.2-.6.1-.3H52l.5.2H53l.6-.3.2.7-.2.1h-.4v.6l-.2.4.2.2-.2.3-.5,2.2-.7.7-.2.6-.3.5-.3.3-.1.3.1.5v1.7l.2.6-.2.8-.3.8-.2.3-.5,1-.5.4-.5,1.6-.9,1.6.3.9a3.74,3.74,0,0,0,.9,1.9c.1.1.8.5,2,1.3l.9-.8,1.3-.7.9-.1.4.3.2.4-.6,1.2.1.1.7.1,1.2.6-.1.3.1.6.3.3.4.1,1,1.2.8.3.4.4H60l.5.6,1,.3.3.4v.3l-1.3.4-.8.2-.8-.3-.9-.1-.9-.4-.1-.1-.7-.3-1.9.9-.8.6-.2.2-.8,1.3-2.3.9-1.6,1.8-.2,1.1.4,1.3v.3l-1.1,1.8-1.7,5.2-.6,3.5.2.8,1,1.8.4.4,1.8,1H50l.3-.1,1.6-.6.9-.2h1.1l1.6.9h.9l1.6-.6a2.65,2.65,0,0,1,1.9,1.5v.6l.4,1,.3.4.1.6.9,2,.2.5.7,1.1.1.6.2.1.7,2.4v.5l.7,1.6.3,1.1h.2l.5,2.6.3.1.2.3.3.7.8.9.3.7.2,1.2v.4l-.5.4-.4.6-.3.8-.3.4-.1.4.1.6,1,2.3.9.6.2.3.1.5.5.8-.6.3-.8-.2-1,.2-.6.1H65l-.3.2-1.5-.3h-2l-.5-.3-.1-.4L58,164.1l-.3-.3-.4-.2-.3-.4-.3-.3h-.6l-.4-.1-.5-.6-.2.3-.3.4-.2.9.5,2.3-.2.3-1,.7-.3.2-1.7-.2-.8.4v-.4l.2-.7v-.2l-.7.2-.2-.2-.9-.1v-.9h-.9l-.1-.3.3-.7.2-.1.2.5.2-.1-.2-.4-.4-.9-.3-.3.6-.1h.1l-.1-.3-1-.3-.6-.7H47l-.5.4H46l-.5.1-.3-.4h-.3l-.4.4-.1.5-.5.1h-.3l-.8-.4-.6.1-.9-.4-.6-.2-.5.2h-.5l-.4-.3-.4-.1-.3-.3-.3-.2-.3.2-.6.4H37l-.9-.6-.3.2-.3.8-1.1.9-.2-.6h-.3l-.2.2-.3-.2-.5-.4h-.3l-.2.3h-.3l-.2.4-.3-.1V162l.2-.1-.2-.2h-.3l-.5.3-.6-.5h-.7l-.6-.2h-.2l.2.6-1.3,1.4v.2l-.5.1-.1.2.1.6-.1.1h-.6l-.1-.1-.2-.5c-.4.4-.6.7-.5.9a.85.85,0,0,1-.2.9l.3,1,.1,1v.4l.2,1,.7,2.5v.4a4.94,4.94,0,0,1-.8,1.8c-.2.4,0,1.1.5,2.2l-.1.7.1.7-.1.4-1.1,1-.1.5v1.3l.1.1.2.3,1,.3.4-.6a2.11,2.11,0,0,1,1.3.5c.2.2.5.6,1,1.2,1,1.1,2.6,1.4,4.7,1.1l1.2.4.5.4.2.5.5.3.4.4,1.4.4.3-.3.8-1.1.6-1.5.3-.3h.5l.4.9.3.4h.4l.3-.2.4-.3.3-.3h.5l.2.4v.7l-.1.6-1,.9v.4l.1,1.2-.1.6-.4.5.1.5.3.3-.3.8.3.8,1.1.4.5.4.4.2L45,193l.5,1.2.7.1.5.2v.3l-.3.6.3.4v.6l.1.3-.1.4h-.5l-.4-.4-1-.3-.6.4h-.1l-.2-.6-.3.2-.1-.2.3-.8-.2-.3-.7-.3h-.3l-.4.4h-1l-.5.3-.1-.1-.6-.2-.5.2-.8.5-.3.9.7.7q-.45,1.5-1.5,4.5a10.32,10.32,0,0,1-2.3,3.9l-.7,1.2-.1.7.1,1,2.4,1.8.1.1.6.8.1.5v.8l-1.1,1.6-.3,1.1-.3,2.2-.4.5-1.6.2-1.2,1.3-.3,2.8-.4.4-.6.4-1,1.8v2.7L29,230.4l-.7.8-.7.1-1.2-1.1L26,230l-1.5-1.1-2.3-.7-.3-.2-.3-.5-.1-.3v-.5l-.3-.3-1.3.1L18.1,228l-.7.2-1,.2-.7-.4v-1l-.2-.3-.1-.7c-1-.7-2.2-.4-3.5.8-.7.7-1.6,1.7-2.7,2.9l.4,1.3.6.8,1.6.7,1.4,1.7v.6l.4.6-.1.5.4,1.6-.4,1.3.9,1.5.3,1v.7l-.2.7v.2l.5,3.2.2.6,1.1,1.3.8,1.4v.6h.5l.1.3v.9l-.3.4v.3l-.3.4.2.6.8.3.8.7.3.4.1.6.3.5.6-.2h.3l.4.6h.3l.1.4h.5l.3.5h.3l.1-.3h.4l.2.3-.2.8.3,1.1-.1.2-1,.9h-.2l-.1.3.3,1.3-.6,2v.5l.3.8v.8l.6,1.6v1.1l.1.2h.1l.3.1.2.2-.2.2.3.2.2.3-.8.7-.1.7-.1.2-.5.1-.7.7-.4-.1-.3.3-.6.1-.3.2.3.6v.3l.3.5v.9l.1.9.5.8v.3l-.2.3-.3.3h-.6l-.1.2.1.4-.4.3-.1.4,1,1.9h.1l.3-.4.2-.2.1,1-.4.6-.6.6-.2.4.5,1.2h-.5l-.3.7-.2.3-.6.4-.3.3v.4l.4,1.5-.1.3-.3-.2v-.3h-.2l-.2.2-.3-.2-.2.2v1l-.3.4-.3-.2h-.3l-.1.5-.3.3h-.4l-.2.3.2.2v.1h.4l-.3.4-.6-.3h-.1l-.1.3.1.3-1.3.5v.4l.3.6-.2.3.2.5-.2.2-.3.1-.4.6h-.3l-.3-.1-.1.1-.4.9v.1l-.2.2-.4-.5h-.3l-.5.8.2.7-.2.3-.2.1-.6-.1-.2.1-.1.5-.4-.5H9l-.1.6H8.4l-.3.3v.1l.3.5-.4.4H7.9l-.2-.1v-.3l-.1-.2H7.1l-.3.3-.1.3.1.7-.1.5-.3.1-.3-.3-.6.2v-.8l-.4-.4-.4.4.2.8-.1,1,.4.4-.7,1H4.4l-.2.2-.4-.5-.7-.1-.3.1-.3.6.1.2.5.1.1.3-.6.6-.4,1.3H1.5l-.6-.6-.4.3L0,305.5l.5.4.5.3h.3l.7-.3.5.3H3.6l.6.2A13.91,13.91,0,0,1,6,308.8,8,8,0,0,0,8.3,311l.1-.3.6.2.3-.3.1-1v-.3l.6-.6.2-.7v-1.2l.1-.1h.3l1,.5,1.6,1.6,1.5.9.5.2v.2l-.2.3-1.2.5-.2.3.2.3h.6l.4,1.7v.3l.7,1-.3.4h-.4l-.4.3h-.5l-.5.3,1.1.9.3.6h.4l.5-.8h.4l.2-.4.1-.1.3.1.3.4h.3l.1-.4h.3l.4.1.5-.8,1.1.7.6.6h.3l.3-.3.3,1,.1.2.2-.2.1-.3,1.2.2.3.4.1.1h.5l.1.2v.3l-.1.1-.5.3-.3.3.2.1h.3l1,.2.4-.2.4.2h.5l1.7,1,.3.2.4-.5.3.6h.3l.2-.3.6.3.4.6.6.4.1.7.2.2h.1l.7-.3h1.2l.6-.2.7.2.3-.2.7-.5h.6l.3-.2.4-.7.7.3h.6l.6-.3h.6l.4-.1.7-.5,2.5-.4.4.1.6.9v.6l.3.1.3-.3h.3l.3.5.2-.3h.3l.2.8h.4l.3-.1.4-.6.3-.1.3.3.6.8.4.2.4-1,.4.1.1.3.1.9h.3l.1-.6.5-.2.2.3.5,1.8.8.3.3.5,1,.6.6.2,2.4,2.6v.3l-.1.1h-1l-.3.3.4.6-.1.7.3.4-.2.3-.8.5-.1.4-.1,3.9.4.2v.1l-.2.6v.4l.8-.3.2-1,.5-.3.5.2.7.7.1-.7h.3l.6.6.4.5v.3l-.4.8v.2l.1.5,1.1.6.3.2.2.6-.1.5-.8.3-.2.4.4.7-.7.7-.2.3.2.4.1.2.3.2,1.3.4.2.3.1.8.2.5,1.4,1.1.9.3.5.3.4.7,1.1.9.5.1.5.3h.3l.3-.1v-.3l-.4-1.2.1-.4.5-.4.2-.9.5-.3h.3l.1.9v.4l-.1,1v.3h.2l.5-.1.3.1.6.4h.4l.6.2h.7l.2.7h.1l.3-.1.1.6.3.1.2-.1.3-.6.1-.2h.6l.6.3,1.6,1.8v.2l-1.2-.2-.3.2.2.3.7.2.1.1.3.9.4.4.2.6h.4l.2-.3v-.7h.6l.8-.7.5.1.1.5-.1.2-.3.3-.3.2.1.1h.9l.3.2.9,1.4.4.3.6.2.1-.9.3-.7-.1-.6.2-.5-.1-.5.1-.3.3-.2.6.2v.1h.3l.4-.3.5.5.1.5.6.3h.4v.5l-.4.3-.1,1.1-.6,1.2v.3l.3.3.4.8.2.5-.2.4-.7.7-.2.3.5.7.1,1.2.3.7v1.5l.2.3.7.3.1,1,.3.3.2.8.2.9.6.7.2.5,1.1.5.3.8-.3.9v.5l.6.9-.3.3h-.4l-.9-.2-.1.2v.3l.1,1.5-.3.5.3.6.9.6.1.4-.1.3-.2.1-.7-.1-.4-.2-.3.2.1.3.6.3.3.2-.1.3h-.5l-.3.2-.1,1-.2.1-.8.2-.3.3-.2.6.8,2.3-.2.6v.2l-.3.2h-.4l-.6-.2-.6-.7-.1.2-.2.5v.5l.9.9.3.7.3,1.1.4.6,1.2.6.3.6h.4l.3-.7.1-.8.5-.3h.3l.1.3-.3.9v.6l-.1.6.3.9.3.4h.4l.1.4-.5.9-.6.5h-.2l-.3-.2-.2.2.1,1.4-.3.4-.6.3-.1.7-.3.4-.6.6h-.4l-.2-.3.3-.6-.4-.8.1-.2h.5l.3-.3.1-.5-.1-.3h-.3l-.5.1-.8.7h-.6l-.4.3-.5.8-.9-.8-.2,1,.5.5.3.6v.5l-.3.7-.4.4-.4.4.1.5.4.9.2.6-.2.1-.2.5.2.6-.2,2.1-.5.6-.3,1.3-.3.3-.7,1-.3.7-.4.2-.3-.2-.4-.5-.2-.2h-.1l-.5.3-.7.7-.4.3-.3.6-.4.3-.2.1-.1.5.1.3.4.4.2.3-.2.3.5.7-.6.7-.1.8c.6.7.9,1.2.8,1.7a3.51,3.51,0,0,1-1.1,1.4l.1.5h.4l.3.1.8.9v.1l-.2.6v.3l.3.4.4.3.2.3v.3l-.2.3-.8.2-.6-.3-.4-.2-.3.2-.3.3-.2.7h-.5l-.5-.3-.6.1-.4.3-.4.7v.3l.7.6-.2.6.2.6h-.2l.3.4-.3.9.2.6.6.7-.3.3-.5.3-.2.3.2.7-.1.3.7.7,1.5.4.1.3v.5l-.3.7.6,2.4-.3,1.2L75,436l-.2.5h-.6l-.1.5.4.8.3.3-.1.2-.6.1-.3.2-.1.4.1.3.3.3h.6l.1.1.3,1.9.3.9-.4,1-.3.3h-.6l-.2.1-.1.3.1.2v.3l.9.9.2.4-.3.6.3.7-.5.3-.1.4.1.4h.2l.1.2.3,1-.1,1.6-.3.6-.3,1v.8l.4.6,1,.8.2.4-.2.3-1.3,1.8.2.5.3.6,2,1.3.1.2-.3.5,5.1-.3,1-.6,2.5-.6.7-.3.5-.5,1.4-.8,2.4-1.7,1.1-.1.3-.3.7-1.2.4-.3,4.1-1,.3-.7.5-1,2.8-1.3,1.2-.8,1.8-.2,1.5-.3,4.8-.5.8-.3.5-.2.1-.2.3-.1,1-.2.6-1.1.6-.8.4-.3.6-.1.4-.6.9-.4.2-.3-.2-.3.9-.4.4-.5.3-.4v-.1l2-1.1.5-.1.7-.6-.3-.6v-.1l.2-.3.5-.6,2.5-.6.3.2h.1l.5-.3,6.8-1.2,3.3-.1.3-.2.6-.1.1-.1v-.3l.2-.3,2.9-.7.3-.2,1.4-.1.5-.5h.4l.6-.4.3-.2-.2-.1v-.3l.3.2.4-.2.2-.3h.3l.3-.4-.2-.2.3-.2.7-.3.2-.2,2.2-.7,3-.4.3-.2-.2-.4.3-.3.2.3v.6l3.4-.9.3-.2h.3l.4-.2-.2-.3v-.3l.5-.5,1.9-.4.3-.1.6-.2.3-.1,1.6-.3.4-.3h.7l1.1-.4.5-.5.9-.1.3-.3,1.9-.3.4-.3,2.6-.7.7-.5.3-.4.6-.1h.3l.4-.2,1.1-.1,1.4-.9-.1-.3,1-.3.6-.3.5-.1.5-.4h.4l.2-.3h.7l3.2-1.6.1-.3-.1-.3.4-.4h-.4l-.9-.5-.7-.3h-.2l-.6-.6-.5-1.4-.2-.1.9.2,1.3-.1.9.1.4.3.2.6.2.6-.3.9h.1l1.1-.3,1.6-.2.3.2h.4l.6-.5.5.2.5-.5,1.3-.4.2-.3-.2-.3,2.6-.7.3-.1,1-.8,2.3-.5,2.2-.9,6-1.2,8.8-1,1.5-.4h.8l.7-.5,3-.1.8-.1.2-.2h.8l.2-.3,1.7-.3h1.5l12.6-1.7c7.8-.6,14.6-1,20.3-1a39,39,0,0,1,6.2-.6,56.21,56.21,0,0,0,6.2-.6l9.2-.7c1.1-.2,4-.7,8.8-1.6a52.54,52.54,0,0,1,9-.9h.7l1.5-.3,6.1-.4.7-.1,11.9-1.1,1.7-.4h1.2l8.7-1.3h1.8v-.3h.2l.9-.3.8-.1.6.1,1,.5.9.2,3.6.6,2.5.7,2.6,1.2,4.5.7h.7l.7.2,1.1.4h.5l.3-.3.6.5,3.5.2,2.9.7,4.3.4,2.2.4,2.6.1.2.3h.2l.3.2,8.4.8h.2l2,.6,4.5.5,1.3.3,4.1.4.4.1,1.4.2,4.7,1v-1.2l.6.2.3-.3,1.6.6.1-.2v-.3l.4-.4,1.2.7-.2-.6h1.2l.3-.2.6.4h.7l.7.4,1.9,1.8h1l.6.1h.3l.7-.7.9.1.1-.1-.1-.9v-.3l.7-.6,1-.1h.2l1,.1.1-.4.3.2.5-.2.5.2.9.4.7.6h.8l.1-.5.1-.1.5-.2.7.9.3-.4h.1l.2.3.1-.5.6.3h.6l.3-.7.3.4.1-.1.9.1.6.6h.1l.2-.7.1-.2h.9l.1-.1v-.6l.5-.6h.2l.2-.3v-.1l-.3-.9-.1-.1h-.3l-.2-.2.2-.2-.5-.2-.1-.3.3-.7-.2-.4-.1-.2v-.3l-.3-.8-.1-.2-.3.2-.2.1v-.6l-.4-.2.1-.4h.3l-.1-.8h.3v-.3h-.6v-.3l.1-.3.6.1-.3-.5h.5l-.3-.9-1.1.3-.5-.9.5.2.2-.2-1-.7-.2-.3-.1-.6.1-.2.8-.2.1-.3.1-1.4-.1-.2-.3-.7.3-.3-.3-.5.6-.8h.1l.9.9.9-.3,1,.3.1-.6v-2.5l-1.7-4-1.5-7.5v-1l.6-3-.4-.4h-.4l.1-.9h-.9l-.3-.9-.4.3h-.6l-.6-.6h-.8l-1.2-.8-1.1-.5-.5-.7-.6.6-.1.4h-.4l-1.1.8-.2.5h-.6l-.2.2-1,.1-.6.6h-.3l-1-1.2h-1l-.4-.7.7-5.1h-1.7l-.8-.1-.5.3h-.8l-.4-.2h-.7v-2.7l.3-.6.1-2.6-.1-.7.3-1.5v-3l-2.1-4.4v-.4l-1-2-.1-.6-.2-.3-1-2.4-.6-3.5-.3-.7-1-6.4-2.6-5.2-.1-.6-.8-1h-1.7l.3-.8v-2.9l-.3-1.3-.3-.3-.3-.7v-1.1l-.3-.5-.3-.9-3-12.9.1-4-1.4-1v-.6l.1-.3.3-1.6.6-.6.3-.4v-.2l.4-.1.9-2.2.7-.8h.3l.2-.6.4-.2-.2-.3-.2-.7-.5-.4-.1-1-1.3-.9-.3-.7.1-3.5,5.4-8.8.9-1.2v-.4l.7-.9v-.1l3-5.6,1.1-.4,2.6-.7.2-.2.6-4.7,1.9-2.2.2-.2,3.2-4.7-1.6-2.5v-.6l.5-5.5,1.3-4.8.2-2.2.3-1,.3-.4.4-1.1.9-8.9,3.6-8,.1-.8,1.2-1.9.3-.3.1-1.3.9-1,.3-.5.1-.5v-.9l.9-1.2.6-.3.9-.7.2-.9.2-.1.4-4.1.3-.7v-1.4l1.6.7.3.9.7.7.9-2.2,2.5-3.2.5-.6.6-1.3.6-.6,3-1h1.9l.4-.1.6-.7.2-.9v-.7l-.2-.9-1.8-3.2-.3-.7.1-.6.7-.4.6-1,.5-.5,1.4.5,1.3-.2.5-.1,2.2-1.3.8-.2.8-.7v-.2c0-5.4-.4-9.4-1.1-11.8l-.3-1v-.6l-1.2-6.4-.6-1.4-.1-1.1-.3-1-1.2-6.2v-1l-.8-4.5.2-.7-.2-.6-.9-5.1-.3-.4h-.8l-1.2.7-.5-.2-.2-.4v-.4l.4-.6h.6l1-1,.1-.5-.2-.5-.5-.8-.5-.5-.3-.6-.2-.5-.3-.4c.1-1.7.1-2.8.1-3.1s-.7-.9-2.1-1.7l-.3-.4-.3-.9v-2.4l.6-1.1v-.1l-.1-.4-1-.6-.8-.2h-1.1l-.5-.3h-.3l-2.6-.2-.5-.2-.6-.3L417,122l-.1-.6v-.5a5.35,5.35,0,0,0,1-2.6,7.32,7.32,0,0,0-.7-2.5l.4-.6,1.4-.4,1.3-1.3c.7-2.1,1.5-3.4,2.5-3.9.2-.1.6-.3,1.1-.5a2.59,2.59,0,0,0,1.1-1l.1-.6-.3-1.1-.4-.6-.1-.1-.5-.3H423l-1.4-.6-.4-.5-.3-1.3.2-1,.1-.4,1-.6a6.67,6.67,0,0,0,1.9-3,12.82,12.82,0,0,0-1-3.5l.1-4.4-.5.3-1.9,2.3-.5.9-.4.3-1.1,1.9-.8.6h-.6l-1.1-.6a19.55,19.55,0,0,1-2.9-2.9L410.5,90l-2.3-2.9-.8-1.2-2.3-4.5a22.86,22.86,0,0,1-2.1-3.9c-.7-1.7-1.3-3.1-1.7-4l-.7-1.3-.4-.5h-.4l-2.2,1.8h-.9l-.4-.3-1.6-2.5-.5-1V68.2l-.4-.7-.6-.6-.8-2.1-.3-.4-.9-.2h-.6l-1.4.4-1.3-.1-.3-.1-.5-.9V60.7l.2-1.4-.3-.9h-.4l-.2.3H386Z"/></g></svg>